<svg width="24" height="24" viewBox="0 0 24 24" fill="none" xmlns="http://www.w3.org/2000/svg">
<path d="M12 6.00001C13.1719 6.00001 14.3125 6.15235 15.4219 6.45704C16.5312 6.76173 17.5938 7.1797 18.6094 7.71095C19.625 8.2422 20.5859 8.87892 21.4922 9.6211C22.3984 10.3633 23.2344 11.1563 24 12C23.2344 12.8594 22.4023 13.6524 21.5039 14.3789C20.6055 15.1055 19.6445 15.7383 18.6211 16.2774C17.5977 16.8164 16.5312 17.2383 15.4219 17.543C14.3125 17.8477 13.1719 18 12 18C10.8281 18 9.6875 17.8477 8.57812 17.543C7.46875 17.2383 6.40625 16.8203 5.39062 16.2891C4.375 15.7578 3.41016 15.125 2.49609 14.3906C1.58203 13.6563 0.75 12.8594 0 12C0.757812 11.1484 1.58984 10.3555 2.49609 9.6211C3.40234 8.88673 4.36328 8.25392 5.37891 7.72267C6.39453 7.19142 7.46094 6.76954 8.57812 6.45704C9.69531 6.14454 10.8359 5.9922 12 6.00001ZM16.5 12C16.5 11.3828 16.3828 10.8008 16.1484 10.2539C15.9141 9.70704 15.5898 9.23048 15.1758 8.82423C14.7617 8.41798 14.2852 8.09767 13.7461 7.86329C13.207 7.62892 12.625 7.50782 12 7.50001C11.3828 7.50001 10.8008 7.6172 10.2539 7.85157C9.70703 8.08595 9.23047 8.41017 8.82422 8.82423C8.41797 9.23829 8.09766 9.71485 7.86328 10.2539C7.62891 10.793 7.50781 11.375 7.5 12C7.5 12.6172 7.61719 13.1992 7.85156 13.7461C8.08594 14.293 8.41016 14.7695 8.82422 15.1758C9.23828 15.582 9.71484 15.9024 10.2539 16.1367C10.793 16.3711 11.375 16.4922 12 16.5C12.6172 16.5 13.1992 16.3828 13.7461 16.1484C14.293 15.9141 14.7695 15.5899 15.1758 15.1758C15.582 14.7617 15.9023 14.2852 16.1367 13.7461C16.3711 13.207 16.4922 12.625 16.5 12ZM2.07422 12C2.80859 12.7109 3.58984 13.3594 4.41797 13.9453C5.24609 14.5313 6.13281 15.0274 7.07812 15.4336C6.72656 14.9336 6.46094 14.3906 6.28125 13.8047C6.10156 13.2188 6.00781 12.6172 6 12C6 11.3906 6.08984 10.793 6.26953 10.207C6.44922 9.6211 6.71875 9.07423 7.07812 8.56642C6.13281 8.96485 5.24609 9.45704 4.41797 10.043C3.58984 10.6289 2.80859 11.2813 2.07422 12ZM16.9219 15.4336C17.8672 15.0352 18.7539 14.543 19.582 13.957C20.4102 13.3711 21.1914 12.7188 21.9258 12C21.1914 11.2891 20.4102 10.6406 19.582 10.0547C18.7539 9.46876 17.8672 8.97267 16.9219 8.56642C17.2734 9.06642 17.5391 9.60939 17.7188 10.1953C17.8984 10.7813 17.9922 11.3828 18 12C18 12.6094 17.9102 13.207 17.7305 13.793C17.5508 14.3789 17.2812 14.9258 16.9219 15.4336ZM12 13.5C11.7891 13.5 11.5938 13.4609 11.4141 13.3828C11.2344 13.3047 11.0781 13.1992 10.9453 13.0664C10.8125 12.9336 10.7031 12.7734 10.6172 12.5859C10.5312 12.3984 10.4922 12.2031 10.5 12C10.5 11.7891 10.5391 11.5938 10.6172 11.4141C10.6953 11.2344 10.8008 11.0781 10.9336 10.9453C11.0664 10.8125 11.2266 10.7031 11.4141 10.6172C11.6016 10.5313 11.7969 10.4922 12 10.5C12.2109 10.5 12.4062 10.5391 12.5859 10.6172C12.7656 10.6953 12.9219 10.8008 13.0547 10.9336C13.1875 11.0664 13.2969 11.2266 13.3828 11.4141C13.4688 11.6016 13.5078 11.7969 13.5 12C13.5 12.2109 13.4609 12.4063 13.3828 12.5859C13.3047 12.7656 13.1992 12.9219 13.0664 13.0547C12.9336 13.1875 12.7734 13.2969 12.5859 13.3828C12.3984 13.4688 12.2031 13.5078 12 13.5Z" fill="#1B1A1A"/>
</svg>
